# xmcd CD database file
#
# Track frame offsets:
#	150
#	14720
#	29296
#	48212
#	61552
#	76116
#	85827
#	101155
#	113560
#	124002
#	134444
#	144778
#
# Disc length: 2155 seconds
#
# Revision: 1
# Processed by: cddbd v1.5.1PL0 Copyright (c) Steve Scherf et al.
# Submitted via: jetAudio 5
#
DISCID=8e08690c
DTITLE=Mary McCaslin and Jim Ringer - The Bramble and the Rose
DYEAR=1900
DGENRE=
TTITLE0=Geronimo's Cadillac
TTITLE1=The Bramble and the Rose
TTITLE2=Lonesome Road
TTITLE3=Stages of My Life
TTITLE4=Oh Death
TTITLE5=Hit the Road, Jack
TTITLE6=Copperfields
TTITLE7=Mama Lou
TTITLE8=I Don't Believe You've Met My Baby
TTITLE9=Strawberry Roan
TTITLE10=Canaan's Land
TTITLE11=Rank Strangers
EXTD=
EXTT0=
EXTT1=
EXTT2=
EXTT3=
EXTT4=
EXTT5=
EXTT6=
EXTT7=
EXTT8=
EXTT9=
EXTT10=
EXTT11=
PLAYORDER=
